{"accessors":{"accessor_0":{"bufferView":"bufferView_1","byteOffset":0,"byteStride":12,"componentType":5126,"count":31820,"max":[103.482,127.134,86.0189],"min":[-1.06541,-11.2089,-3.02356],"type":"VEC3"},"accessor_1":{"bufferView":"bufferView_1","byteOffset":381840,"byteStride":12,"componentType":5126,"count":31820,"max":[1,1,1],"min":[-1,-1,-1],"type":"VEC3"},"accessor_2":{"bufferView":"bufferView_1","byteOffset":763680,"byteStride":12,"componentType":5126,"count":43688,"max":[103.482,127.134,86.0189],"min":[-1.06541,-11.2089,-3.02356],"type":"VEC3"},"accessor_3":{"bufferView":"bufferView_1","byteOffset":1287936,"byteStride":12,"componentType":5126,"count":43688,"max":[1,1,1],"min":[-1,-1,-1],"type":"VEC3"},"accessor_4":{"bufferView":"bufferView_1","byteOffset":1812192,"byteStride":12,"componentType":5126,"count":43688,"max":[103.482,127.134,86.0189],"min":[-1.06541,-11.2089,-3.02356],"type":"VEC3"},"accessor_5":{"bufferView":"bufferView_1","byteOffset":2336448,"byteStride":12,"componentType":5126,"count":43688,"max":[1,1,1],"min":[-1,-1,-1],"type":"VEC3"},"accessor_6":{"bufferView":"bufferView_0","byteOffset":0,"byteStride":2,"componentType":5123,"count":103554,"max":[31819],"min":[0],"type":"SCALAR"},"accessor_7":{"bufferView":"bufferView_0","byteOffset":207108,"byteStride":2,"componentType":5123,"count":168672,"max":[43687],"min":[0],"type":"SCALAR"},"accessor_8":{"bufferView":"bufferView_0","byteOffset":544452,"byteStride":2,"componentType":5123,"count":185550,"max":[43687],"min":[0],"type":"SCALAR"}},"animations":{},"asset":{"generator":"pv2gltf","premultipliedAlpha":true,"profile":{"api":"WebGL","version":"1.0.2"},"version":"1.0.1"},"bufferViews": {"bufferView_1":{"buffer":"mekaARalignment03@0","byteLength":2860704,"byteOffset":0,"target":34962},"bufferView_0":{"buffer":"mekaARalignment03@0","byteLength":915552,"byteOffset":2860704,"target":34963}},"buffers": {"mekaARalignment03@0":{"byteLength":3776256,"type":"arraybuffer","uri":"mekaARalignment03-0.bin"}},"extensionsUsed":["KHR_materials_common"],"images":{},"materials":{"mat@0-lib":{"extensions":{"KHR_materials_common":{"doubleSided":true,"jointCount":0,"technique":"PHONG","transparent":false,"values":{"ambient":[0.5,0.5,0.5,1],"diffuse":[0.5,0.5,0.5,1],"emission":[0,0,0,1],"shininess":0,"specular":[0,0,0,1]}}},"name":"mat@0"}},"meshes": {"Merge0~1":{"name":"Merge0~1","primitives":[{"attributes":{"NORMAL":"accessor_1","POSITION":"accessor_0"},"indices":"accessor_6","material":"mat@0-lib","mode":4},{"attributes":{"NORMAL":"accessor_3","POSITION":"accessor_2"},"indices":"accessor_7","material":"mat@0-lib","mode":4},{"attributes":{"NORMAL":"accessor_5","POSITION":"accessor_4"},"indices":"accessor_8","material":"mat@0-lib","mode":4}]}},"nodes":{"/":{"children":["Merge0"],"name":"mekaARalignment03"},"Merge0":{"children":["Merge0~1@0"],"name":"Merge0"},"Merge0~1@0":{"children":[],"meshes":["Merge0~1"]}},"programs": {},"samplers": {},"scene":"defaultScene","scenes":{"defaultScene":{"nodes":["/"]}},"skins":{},"techniques":{},"textures":{}}